{
	"asset":{
		"generator":"Khronos glTF Blender I/O v4.3.47",
		"version":"2.0"
	},
	"scene":0,
	"scenes":[
		{
			"name":"Scene",
			"nodes":[
				0,
				1,
				2,
				3
			]
		}
	],
	"nodes":[
		{
			"name":"Empty",
			"rotation":[
				0.5,
				-0.5,
				0.5,
				0.5
			],
			"translation":[
				0,
				0.939021110534668,
				0
			]
		},
		{
			"mesh":0,
			"name":"Plane"
		},
		{
			"name":"Empty.001",
			"rotation":[
				0,
				-0.7071066498756409,
				0.70710688829422,
				3.090861255827804e-08
			],
			"scale":[
				0.3842012286186218,
				0.3842012286186218,
				0.3842012286186218
			],
			"translation":[
				0.010951876640319824,
				0.7592551708221436,
				-1.4881353378295898
			]
		},
		{
			"name":"Empty.002",
			"rotation":[
				0,
				-0.7071068286895752,
				0,
				0.7071068286895752
			],
			"scale":[
				0.9717046022415161,
				0.9717046022415161,
				0.9717046022415161
			],
			"translation":[
				-0.03880198299884796,
				-0.10795009136199951,
				0.04526898264884949
			]
		}
	],
	"meshes":[
		{
			"name":"Plane",
			"primitives":[
				{
					"attributes":{
						"POSITION":0,
						"NORMAL":1,
						"TEXCOORD_0":2
					},
					"indices":3
				}
			]
		}
	],
	"accessors":[
		{
			"bufferView":0,
			"componentType":5126,
			"count":1804,
			"max":[
				0.9052890539169312,
				1.4302934408187866,
				2.318847179412842
			],
			"min":[
				-0.9052890539169312,
				0.2338249534368515,
				-2.187005043029785
			],
			"type":"VEC3"
		},
		{
			"bufferView":1,
			"componentType":5126,
			"count":1804,
			"type":"VEC3"
		},
		{
			"bufferView":2,
			"componentType":5126,
			"count":1804,
			"type":"VEC2"
		},
		{
			"bufferView":3,
			"componentType":5123,
			"count":3414,
			"type":"SCALAR"
		}
	],
	"bufferViews":[
		{
			"buffer":0,
			"byteLength":21648,
			"byteOffset":0,
			"target":34962
		},
		{
			"buffer":0,
			"byteLength":21648,
			"byteOffset":21648,
			"target":34962
		},
		{
			"buffer":0,
			"byteLength":14432,
			"byteOffset":43296,
			"target":34962
		},
		{
			"buffer":0,
			"byteLength":6828,
			"byteOffset":57728,
			"target":34963
		}
	],
	"buffers":[
		{
			"byteLength":64556,
			"uri":"data:application/octet-stream;base64,"
		}
	]
}
