{
	"asset":{
		"generator":"Khronos glTF Blender I/O v4.3.47",
		"version":"2.0"
	},
	"scene":0,
	"scenes":[
		{
			"name":"Scene",
			"nodes":[
				0
			]
		}
	],
	"nodes":[
		{
			"mesh":0,
			"name":"Circle",
			"rotation":[
				0,
				0,
				-0.7071068286895752,
				0.7071068286895752
			],
			"translation":[
				-0.698040246963501,
				0.5222439765930176,
				0.04980278015136719
			]
		}
	],
	"materials":[
		{
			"doubleSided":true,
			"name":"Material.001",
			"pbrMetallicRoughness":{
				"baseColorFactor":[
					0.800000011920929,
					0.800000011920929,
					0.800000011920929,
					1
				],
				"metallicFactor":0,
				"roughnessFactor":0.5
			}
		}
	],
	"meshes":[
		{
			"name":"Circle",
			"primitives":[
				{
					"attributes":{
						"POSITION":0,
						"NORMAL":1,
						"TEXCOORD_0":2
					},
					"indices":3,
					"material":0
				}
			]
		}
	],
	"accessors":[
		{
			"bufferView":0,
			"componentType":5126,
			"count":4118,
			"max":[
				0.2429451048374176,
				2.119612455368042,
				0.7407415509223938
			],
			"min":[
				-1.6626225709915161,
				0.44722768664360046,
				-0.7407415509223938
			],
			"type":"VEC3"
		},
		{
			"bufferView":1,
			"componentType":5126,
			"count":4118,
			"type":"VEC3"
		},
		{
			"bufferView":2,
			"componentType":5126,
			"count":4118,
			"type":"VEC2"
		},
		{
			"bufferView":3,
			"componentType":5123,
			"count":22200,
			"type":"SCALAR"
		}
	],
	"bufferViews":[
		{
			"buffer":0,
			"byteLength":49416,
			"byteOffset":0,
			"target":34962
		},
		{
			"buffer":0,
			"byteLength":49416,
			"byteOffset":49416,
			"target":34962
		},
		{
			"buffer":0,
			"byteLength":32944,
			"byteOffset":98832,
			"target":34962
		},
		{
			"buffer":0,
			"byteLength":44400,
			"byteOffset":131776,
			"target":34963
		}
	],
	"buffers":[
		{
			"byteLength":176176,
			"uri":"data:application/octet-stream;base64,"
		}
	]
}
