{
	"asset":{
		"generator":"Khronos glTF Blender I/O v4.3.47",
		"version":"2.0"
	},
	"scene":0,
	"scenes":[
		{
			"name":"Scene",
			"nodes":[
				0,
				1,
				2,
				3,
				4,
				19
			]
		}
	],
	"nodes":[
		{
			"name":"Empty",
			"rotation":[
				0.7071068286895752,
				0,
				0,
				0.7071068286895752
			]
		},
		{
			"name":"Empty.001",
			"rotation":[
				0.5,
				0.5,
				-0.5,
				0.5
			],
			"scale":[
				0.6153998970985413,
				0.6153998970985413,
				0.6153998970985413
			],
			"translation":[
				0.5735207796096802,
				0.22881565988063812,
				3.61562442779541
			]
		},
		{
			"name":"Empty.002",
			"rotation":[
				0.70710688829422,
				0,
				0,
				0.7071066498756409
			],
			"translation":[
				-0.043939948081970215,
				-0.019239798188209534,
				1.487833023071289
			]
		},
		{
			"mesh":0,
			"name":"Bullet",
			"rotation":[
				0,
				0,
				-0.810164749622345,
				0.5862022638320923
			],
			"scale":[
				0.1073116585612297,
				0.13555876910686493,
				0.10514172911643982
			],
			"translation":[
				-1.3851951360702515,
				-0.7096253037452698,
				1.943474531173706
			]
		},
		{
			"mesh":1,
			"name":"Bullet Casing",
			"rotation":[
				0,
				0,
				-0.810164749622345,
				0.5862022638320923
			],
			"scale":[
				0.1073116585612297,
				0.13555876910686493,
				0.10514172911643982
			],
			"translation":[
				-1.3851951360702515,
				-0.7096253037452698,
				2.3957486152648926
			]
		},
		{
			"mesh":2,
			"name":"Barrel",
			"rotation":[
				0,
				0,
				0.5525751113891602,
				0.8334630727767944
			],
			"scale":[
				1.618364930152893,
				1.618364930152893,
				0.6477182507514954
			],
			"translation":[
				-0.24785545468330383,
				-0.6490631103515625,
				-0.021656105294823647
			]
		},
		{
			"name":"Bone",
			"rotation":[
				-7.596399065334936e-09,
				-6.065250346409812e-08,
				-0.19499541819095612,
				0.9808041453361511
			],
			"translation":[
				-6.225334914233827e-08,
				1.58286283635789e-07,
				-2.232713427474664e-07
			]
		},
		{
			"children":[
				5,
				6
			],
			"name":"Barrel.001",
			"rotation":[
				0,
				0,
				-0.5525751709938049,
				0.8334630727767944
			],
			"scale":[
				0.6179076433181763,
				0.6179076433181763,
				0.6179075837135315
			],
			"translation":[
				2.3015975952148438,
				2.2680792808532715,
				0
			]
		},
		{
			"mesh":3,
			"name":"Charging Handle",
			"rotation":[
				0,
				0,
				0.5525751113891602,
				0.8334630727767944
			],
			"scale":[
				1.618364930152893,
				1.618364930152893,
				0.6477182507514954
			],
			"translation":[
				3.3251304626464844,
				-1.9518934488296509,
				-0.1792493313550949
			]
		},
		{
			"name":"Bone",
			"rotation":[
				-7.596399065334936e-09,
				-6.065250346409812e-08,
				-0.19499541819095612,
				0.9808041453361511
			],
			"translation":[
				-2.1126496108081483e-07,
				9.868163886039838e-08,
				-6.383068296145211e-08
			]
		},
		{
			"children":[
				8,
				9
			],
			"name":"Charg. H.",
			"rotation":[
				0,
				0,
				-0.5525751709938049,
				0.8334630727767944
			],
			"scale":[
				0.6179076433181763,
				0.6179076433181763,
				0.6179075837135315
			],
			"translation":[
				0.7094730138778687,
				2.256906509399414,
				0
			]
		},
		{
			"mesh":4,
			"name":"Frame",
			"scale":[
				1,
				1,
				0.4002299904823303
			],
			"translation":[
				0.3984503746032715,
				0.9734815955162048,
				-0.11075997352600098
			]
		},
		{
			"mesh":5,
			"name":"Magazine",
			"scale":[
				0.48266398906707764,
				0.48266398906707764,
				0.2218528389930725
			],
			"translation":[
				-0.3172292709350586,
				-1.0690866708755493,
				-0.0034050941467285156
			]
		},
		{
			"name":"Bone",
			"rotation":[
				-4.1550062945816535e-08,
				-1.4666465375512416e-08,
				-0.16534027457237244,
				0.9862366318702698
			],
			"scale":[
				0.9999999403953552,
				0.9999999403953552,
				1
			]
		},
		{
			"children":[
				12,
				13
			],
			"name":"Mag",
			"translation":[
				-0.038616299629211426,
				-0.16739118099212646,
				-0.013381004333496094
			]
		},
		{
			"mesh":6,
			"name":"Trigger",
			"rotation":[
				0,
				0,
				0.9533378481864929,
				0.3019055426120758
			],
			"scale":[
				5.079344272613525,
				5.079344272613525,
				2.0329062938690186
			],
			"translation":[
				0.010307854041457176,
				0.16549964249134064,
				-0.00932044256478548
			]
		},
		{
			"name":"Bone",
			"rotation":[
				-7.596402618048614e-09,
				-6.065251056952548e-08,
				-0.19499538838863373,
				0.9808041453361511
			],
			"scale":[
				1,
				1,
				1.0000001192092896
			],
			"translation":[
				2.732613211264834e-07,
				3.044190179934958e-07,
				2.5732555286595016e-07
			]
		},
		{
			"children":[
				15,
				16
			],
			"name":"Trigg",
			"rotation":[
				0,
				0,
				-0.8465500473976135,
				0.5323091149330139
			],
			"scale":[
				0.19687581062316895,
				0.19687581062316895,
				0.19687581062316895
			],
			"translation":[
				1.2129523754119873,
				1.668129801750183,
				-0.018785953521728516
			]
		},
		{
			"name":"Frame",
			"rotation":[
				-7.596399953513355e-09,
				-6.065250346409812e-08,
				-0.19499538838863373,
				0.9808041453361511
			]
		},
		{
			"children":[
				7,
				10,
				11,
				14,
				17,
				18
			],
			"name":"Armature.001",
			"translation":[
				-1.4616535902023315,
				-1.1152420043945312,
				1.5012142658233643
			]
		}
	],
	"animations":[
		{
			"channels":[
				{
					"sampler":0,
					"target":{
						"node":18,
						"path":"translation"
					}
				},
				{
					"sampler":1,
					"target":{
						"node":18,
						"path":"rotation"
					}
				},
				{
					"sampler":2,
					"target":{
						"node":18,
						"path":"scale"
					}
				},
				{
					"sampler":3,
					"target":{
						"node":19,
						"path":"translation"
					}
				},
				{
					"sampler":4,
					"target":{
						"node":19,
						"path":"rotation"
					}
				}
			],
			"name":"Armature.001Action.001",
			"samplers":[
				{
					"input":28,
					"interpolation":"STEP",
					"output":29
				},
				{
					"input":28,
					"interpolation":"STEP",
					"output":30
				},
				{
					"input":28,
					"interpolation":"STEP",
					"output":31
				},
				{
					"input":28,
					"interpolation":"STEP",
					"output":32
				},
				{
					"input":33,
					"interpolation":"LINEAR",
					"output":34
				}
			]
		},
		{
			"channels":[
				{
					"sampler":0,
					"target":{
						"node":6,
						"path":"translation"
					}
				},
				{
					"sampler":1,
					"target":{
						"node":6,
						"path":"rotation"
					}
				},
				{
					"sampler":2,
					"target":{
						"node":6,
						"path":"scale"
					}
				},
				{
					"sampler":3,
					"target":{
						"node":7,
						"path":"translation"
					}
				},
				{
					"sampler":4,
					"target":{
						"node":7,
						"path":"rotation"
					}
				}
			],
			"name":"Shoot",
			"samplers":[
				{
					"input":35,
					"interpolation":"STEP",
					"output":36
				},
				{
					"input":35,
					"interpolation":"STEP",
					"output":37
				},
				{
					"input":35,
					"interpolation":"STEP",
					"output":38
				},
				{
					"input":35,
					"interpolation":"LINEAR",
					"output":39
				},
				{
					"input":35,
					"interpolation":"LINEAR",
					"output":40
				}
			]
		},
		{
			"channels":[
				{
					"sampler":0,
					"target":{
						"node":9,
						"path":"translation"
					}
				},
				{
					"sampler":1,
					"target":{
						"node":9,
						"path":"rotation"
					}
				},
				{
					"sampler":2,
					"target":{
						"node":9,
						"path":"scale"
					}
				},
				{
					"sampler":3,
					"target":{
						"node":10,
						"path":"translation"
					}
				},
				{
					"sampler":4,
					"target":{
						"node":10,
						"path":"rotation"
					}
				}
			],
			"name":"Armature.002Action",
			"samplers":[
				{
					"input":28,
					"interpolation":"STEP",
					"output":41
				},
				{
					"input":28,
					"interpolation":"STEP",
					"output":42
				},
				{
					"input":28,
					"interpolation":"STEP",
					"output":43
				},
				{
					"input":33,
					"interpolation":"LINEAR",
					"output":44
				},
				{
					"input":28,
					"interpolation":"LINEAR",
					"output":45
				}
			]
		},
		{
			"channels":[
				{
					"sampler":0,
					"target":{
						"node":13,
						"path":"translation"
					}
				},
				{
					"sampler":1,
					"target":{
						"node":13,
						"path":"rotation"
					}
				},
				{
					"sampler":2,
					"target":{
						"node":13,
						"path":"scale"
					}
				},
				{
					"sampler":3,
					"target":{
						"node":14,
						"path":"translation"
					}
				},
				{
					"sampler":4,
					"target":{
						"node":14,
						"path":"rotation"
					}
				}
			],
			"name":"ArmatureAction",
			"samplers":[
				{
					"input":35,
					"interpolation":"STEP",
					"output":46
				},
				{
					"input":35,
					"interpolation":"STEP",
					"output":47
				},
				{
					"input":35,
					"interpolation":"STEP",
					"output":48
				},
				{
					"input":35,
					"interpolation":"LINEAR",
					"output":49
				},
				{
					"input":35,
					"interpolation":"LINEAR",
					"output":50
				}
			]
		},
		{
			"channels":[
				{
					"sampler":0,
					"target":{
						"node":16,
						"path":"translation"
					}
				},
				{
					"sampler":1,
					"target":{
						"node":16,
						"path":"rotation"
					}
				},
				{
					"sampler":2,
					"target":{
						"node":16,
						"path":"scale"
					}
				},
				{
					"sampler":3,
					"target":{
						"node":17,
						"path":"translation"
					}
				},
				{
					"sampler":4,
					"target":{
						"node":17,
						"path":"rotation"
					}
				}
			],
			"name":"Armature.003Action.001",
			"samplers":[
				{
					"input":51,
					"interpolation":"STEP",
					"output":52
				},
				{
					"input":51,
					"interpolation":"STEP",
					"output":53
				},
				{
					"input":51,
					"interpolation":"STEP",
					"output":54
				},
				{
					"input":51,
					"interpolation":"LINEAR",
					"output":55
				},
				{
					"input":56,
					"interpolation":"LINEAR",
					"output":57
				}
			]
		}
	],
	"materials":[
		{
			"doubleSided":true,
			"name":"Material.002",
			"pbrMetallicRoughness":{
				"baseColorFactor":[
					0.800000011920929,
					0.800000011920929,
					0.800000011920929,
					1
				],
				"metallicFactor":0,
				"roughnessFactor":0.4000000059604645
			}
		},
		{
			"doubleSided":true,
			"name":"Material.001",
			"pbrMetallicRoughness":{
				"baseColorFactor":[
					0.800000011920929,
					0.800000011920929,
					0.800000011920929,
					1
				],
				"metallicFactor":0,
				"roughnessFactor":0.4000000059604645
			}
		},
		{
			"doubleSided":true,
			"name":"Material",
			"pbrMetallicRoughness":{
				"baseColorFactor":[
					0.800000011920929,
					0.800000011920929,
					0.800000011920929,
					1
				],
				"metallicFactor":0,
				"roughnessFactor":0.4000000059604645
			}
		},
		{
			"doubleSided":true,
			"name":"Material.003",
			"pbrMetallicRoughness":{
				"baseColorFactor":[
					0.800000011920929,
					0.800000011920929,
					0.800000011920929,
					1
				],
				"metallicFactor":0,
				"roughnessFactor":0.4000000059604645
			}
		}
	],
	"meshes":[
		{
			"name":"Cylinder",
			"primitives":[
				{
					"attributes":{
						"POSITION":0,
						"NORMAL":1,
						"TEXCOORD_0":2
					},
					"indices":3
				}
			]
		},
		{
			"name":"Cylinder.001",
			"primitives":[
				{
					"attributes":{
						"POSITION":4,
						"NORMAL":5,
						"TEXCOORD_0":6
					},
					"indices":7
				}
			]
		},
		{
			"name":"Cube.003",
			"primitives":[
				{
					"attributes":{
						"POSITION":8,
						"NORMAL":9,
						"TEXCOORD_0":10
					},
					"indices":11,
					"material":0
				}
			]
		},
		{
			"name":"Cube.002",
			"primitives":[
				{
					"attributes":{
						"POSITION":12,
						"NORMAL":13,
						"TEXCOORD_0":14
					},
					"indices":15,
					"material":1
				}
			]
		},
		{
			"name":"Cube",
			"primitives":[
				{
					"attributes":{
						"POSITION":16,
						"NORMAL":17,
						"TEXCOORD_0":18
					},
					"indices":19,
					"material":2
				}
			]
		},
		{
			"name":"Cube.001",
			"primitives":[
				{
					"attributes":{
						"POSITION":20,
						"NORMAL":21,
						"TEXCOORD_0":22
					},
					"indices":23
				}
			]
		},
		{
			"name":"Cube.004",
			"primitives":[
				{
					"attributes":{
						"POSITION":24,
						"NORMAL":25,
						"TEXCOORD_0":26
					},
					"indices":27,
					"material":3
				}
			]
		}
	],
	"skins":[
		{
			"inverseBindMatrices":58,
			"joints":[
				18
			],
			"name":"Armature.001"
		},
		{
			"inverseBindMatrices":59,
			"joints":[
				6
			],
			"name":"Barrel.001"
		},
		{
			"inverseBindMatrices":60,
			"joints":[
				9
			],
			"name":"Charg. H."
		},
		{
			"inverseBindMatrices":61,
			"joints":[
				13
			],
			"name":"Mag"
		},
		{
			"inverseBindMatrices":62,
			"joints":[
				16
			],
			"name":"Trigg"
		}
	],
	"accessors":[
		{
			"bufferView":0,
			"componentType":5126,
			"count":493,
			"max":[
				1.100000023841858,
				3.0965542793273926,
				1.100000023841858
			],
			"min":[
				-1.0999997854232788,
				-1.222849726676941,
				-1.100000023841858
			],
			"type":"VEC3"
		},
		{
			"bufferView":1,
			"componentType":5126,
			"count":493,
			"type":"VEC3"
		},
		{
			"bufferView":2,
			"componentType":5126,
			"count":493,
			"type":"VEC2"
		},
		{
			"bufferView":3,
			"componentType":5123,
			"count":2484,
			"type":"SCALAR"
		},
		{
			"bufferView":4,
			"componentType":5126,
			"count":462,
			"max":[
				1.0999538898468018,
				1.001662254333496,
				1.100000023841858
			],
			"min":[
				-1.1000616550445557,
				-1.221260666847229,
				-1.100000023841858
			],
			"type":"VEC3"
		},
		{
			"bufferView":5,
			"componentType":5126,
			"count":462,
			"type":"VEC3"
		},
		{
			"bufferView":6,
			"componentType":5126,
			"count":462,
			"type":"VEC2"
		},
		{
			"bufferView":7,
			"componentType":5123,
			"count":2586,
			"type":"SCALAR"
		},
		{
			"bufferView":8,
			"componentType":5126,
			"count":224,
			"max":[
				1.6885508298873901,
				0.13981425762176514,
				0.3644012212753296
			],
			"min":[
				0,
				-0.13981401920318604,
				-0.36440107226371765
			],
			"type":"VEC3"
		},
		{
			"bufferView":9,
			"componentType":5126,
			"count":224,
			"type":"VEC3"
		},
		{
			"bufferView":10,
			"componentType":5126,
			"count":224,
			"type":"VEC2"
		},
		{
			"bufferView":11,
			"componentType":5123,
			"count":474,
			"type":"SCALAR"
		},
		{
			"bufferView":12,
			"componentType":5126,
			"count":322,
			"max":[
				3.129384994506836,
				2.6830544471740723,
				1.0224640369415283
			],
			"min":[
				-0.7466268539428711,
				2.0156450271606445,
				-0.5358503460884094
			],
			"type":"VEC3"
		},
		{
			"bufferView":13,
			"componentType":5126,
			"count":322,
			"type":"VEC3"
		},
		{
			"bufferView":14,
			"componentType":5126,
			"count":322,
			"type":"VEC2"
		},
		{
			"bufferView":15,
			"componentType":5123,
			"count":1374,
			"type":"SCALAR"
		},
		{
			"bufferView":16,
			"componentType":5126,
			"count":1900,
			"max":[
				4.733233451843262,
				2.20841383934021,
				1.2018496990203857
			],
			"min":[
				-1.031502366065979,
				-1.0866312980651855,
				-0.7152359485626221
			],
			"type":"VEC3"
		},
		{
			"bufferView":17,
			"componentType":5126,
			"count":1900,
			"type":"VEC3"
		},
		{
			"bufferView":18,
			"componentType":5126,
			"count":1900,
			"type":"VEC2"
		},
		{
			"bufferView":19,
			"componentType":5123,
			"count":8538,
			"type":"SCALAR"
		},
		{
			"bufferView":20,
			"componentType":5126,
			"count":84,
			"max":[
				2.614612102508545,
				5.93964147567749,
				1.160040020942688
			],
			"min":[
				-1.0865758657455444,
				-1.0791927576065063,
				-1.1600397825241089
			],
			"type":"VEC3"
		},
		{
			"bufferView":21,
			"componentType":5126,
			"count":84,
			"type":"VEC3"
		},
		{
			"bufferView":22,
			"componentType":5126,
			"count":84,
			"type":"VEC2"
		},
		{
			"bufferView":23,
			"componentType":5123,
			"count":294,
			"type":"SCALAR"
		},
		{
			"bufferView":24,
			"componentType":5126,
			"count":49,
			"max":[
				0.18676269054412842,
				0.02887141704559326,
				0.14620471000671387
			],
			"min":[
				-0.07217884063720703,
				-0.4092979431152344,
				-0.14620542526245117
			],
			"type":"VEC3"
		},
		{
			"bufferView":25,
			"componentType":5126,
			"count":49,
			"type":"VEC3"
		},
		{
			"bufferView":26,
			"componentType":5126,
			"count":49,
			"type":"VEC2"
		},
		{
			"bufferView":27,
			"componentType":5123,
			"count":291,
			"type":"SCALAR"
		},
		{
			"bufferView":28,
			"componentType":5126,
			"count":2,
			"max":[
				0.75
			],
			"min":[
				0.041666666666666664
			],
			"type":"SCALAR"
		},
		{
			"bufferView":29,
			"componentType":5126,
			"count":2,
			"type":"VEC3"
		},
		{
			"bufferView":30,
			"componentType":5126,
			"count":2,
			"type":"VEC4"
		},
		{
			"bufferView":31,
			"componentType":5126,
			"count":2,
			"type":"VEC3"
		},
		{
			"bufferView":32,
			"componentType":5126,
			"count":2,
			"type":"VEC3"
		},
		{
			"bufferView":33,
			"componentType":5126,
			"count":18,
			"max":[
				0.75
			],
			"min":[
				0.041666666666666664
			],
			"type":"SCALAR"
		},
		{
			"bufferView":34,
			"componentType":5126,
			"count":18,
			"type":"VEC4"
		},
		{
			"bufferView":35,
			"componentType":5126,
			"count":2,
			"max":[
				0.20833333333333334
			],
			"min":[
				0.041666666666666664
			],
			"type":"SCALAR"
		},
		{
			"bufferView":36,
			"componentType":5126,
			"count":2,
			"type":"VEC3"
		},
		{
			"bufferView":37,
			"componentType":5126,
			"count":2,
			"type":"VEC4"
		},
		{
			"bufferView":38,
			"componentType":5126,
			"count":2,
			"type":"VEC3"
		},
		{
			"bufferView":39,
			"componentType":5126,
			"count":2,
			"type":"VEC3"
		},
		{
			"bufferView":40,
			"componentType":5126,
			"count":2,
			"type":"VEC4"
		},
		{
			"bufferView":41,
			"componentType":5126,
			"count":2,
			"type":"VEC3"
		},
		{
			"bufferView":42,
			"componentType":5126,
			"count":2,
			"type":"VEC4"
		},
		{
			"bufferView":43,
			"componentType":5126,
			"count":2,
			"type":"VEC3"
		},
		{
			"bufferView":44,
			"componentType":5126,
			"count":18,
			"type":"VEC3"
		},
		{
			"bufferView":45,
			"componentType":5126,
			"count":2,
			"type":"VEC4"
		},
		{
			"bufferView":46,
			"componentType":5126,
			"count":2,
			"type":"VEC3"
		},
		{
			"bufferView":47,
			"componentType":5126,
			"count":2,
			"type":"VEC4"
		},
		{
			"bufferView":48,
			"componentType":5126,
			"count":2,
			"type":"VEC3"
		},
		{
			"bufferView":49,
			"componentType":5126,
			"count":2,
			"type":"VEC3"
		},
		{
			"bufferView":50,
			"componentType":5126,
			"count":2,
			"type":"VEC4"
		},
		{
			"bufferView":51,
			"componentType":5126,
			"count":2,
			"max":[
				0.6666666666666666
			],
			"min":[
				0.041666666666666664
			],
			"type":"SCALAR"
		},
		{
			"bufferView":52,
			"componentType":5126,
			"count":2,
			"type":"VEC3"
		},
		{
			"bufferView":53,
			"componentType":5126,
			"count":2,
			"type":"VEC4"
		},
		{
			"bufferView":54,
			"componentType":5126,
			"count":2,
			"type":"VEC3"
		},
		{
			"bufferView":55,
			"componentType":5126,
			"count":2,
			"type":"VEC3"
		},
		{
			"bufferView":56,
			"componentType":5126,
			"count":16,
			"max":[
				0.6666666666666666
			],
			"min":[
				0.041666666666666664
			],
			"type":"SCALAR"
		},
		{
			"bufferView":57,
			"componentType":5126,
			"count":16,
			"type":"VEC4"
		},
		{
			"bufferView":58,
			"componentType":5126,
			"count":1,
			"type":"MAT4"
		},
		{
			"bufferView":59,
			"componentType":5126,
			"count":1,
			"type":"MAT4"
		},
		{
			"bufferView":60,
			"componentType":5126,
			"count":1,
			"type":"MAT4"
		},
		{
			"bufferView":61,
			"componentType":5126,
			"count":1,
			"type":"MAT4"
		},
		{
			"bufferView":62,
			"componentType":5126,
			"count":1,
			"type":"MAT4"
		}
	],
	"bufferViews":[
		{
			"buffer":0,
			"byteLength":5916,
			"byteOffset":0,
			"target":34962
		},
		{
			"buffer":0,
			"byteLength":5916,
			"byteOffset":5916,
			"target":34962
		},
		{
			"buffer":0,
			"byteLength":3944,
			"byteOffset":11832,
			"target":34962
		},
		{
			"buffer":0,
			"byteLength":4968,
			"byteOffset":15776,
			"target":34963
		},
		{
			"buffer":0,
			"byteLength":5544,
			"byteOffset":20744,
			"target":34962
		},
		{
			"buffer":0,
			"byteLength":5544,
			"byteOffset":26288,
			"target":34962
		},
		{
			"buffer":0,
			"byteLength":3696,
			"byteOffset":31832,
			"target":34962
		},
		{
			"buffer":0,
			"byteLength":5172,
			"byteOffset":35528,
			"target":34963
		},
		{
			"buffer":0,
			"byteLength":2688,
			"byteOffset":40700,
			"target":34962
		},
		{
			"buffer":0,
			"byteLength":2688,
			"byteOffset":43388,
			"target":34962
		},
		{
			"buffer":0,
			"byteLength":1792,
			"byteOffset":46076,
			"target":34962
		},
		{
			"buffer":0,
			"byteLength":948,
			"byteOffset":47868,
			"target":34963
		},
		{
			"buffer":0,
			"byteLength":3864,
			"byteOffset":48816,
			"target":34962
		},
		{
			"buffer":0,
			"byteLength":3864,
			"byteOffset":52680,
			"target":34962
		},
		{
			"buffer":0,
			"byteLength":2576,
			"byteOffset":56544,
			"target":34962
		},
		{
			"buffer":0,
			"byteLength":2748,
			"byteOffset":59120,
			"target":34963
		},
		{
			"buffer":0,
			"byteLength":22800,
			"byteOffset":61868,
			"target":34962
		},
		{
			"buffer":0,
			"byteLength":22800,
			"byteOffset":84668,
			"target":34962
		},
		{
			"buffer":0,
			"byteLength":15200,
			"byteOffset":107468,
			"target":34962
		},
		{
			"buffer":0,
			"byteLength":17076,
			"byteOffset":122668,
			"target":34963
		},
		{
			"buffer":0,
			"byteLength":1008,
			"byteOffset":139744,
			"target":34962
		},
		{
			"buffer":0,
			"byteLength":1008,
			"byteOffset":140752,
			"target":34962
		},
		{
			"buffer":0,
			"byteLength":672,
			"byteOffset":141760,
			"target":34962
		},
		{
			"buffer":0,
			"byteLength":588,
			"byteOffset":142432,
			"target":34963
		},
		{
			"buffer":0,
			"byteLength":588,
			"byteOffset":143020,
			"target":34962
		},
		{
			"buffer":0,
			"byteLength":588,
			"byteOffset":143608,
			"target":34962
		},
		{
			"buffer":0,
			"byteLength":392,
			"byteOffset":144196,
			"target":34962
		},
		{
			"buffer":0,
			"byteLength":582,
			"byteOffset":144588,
			"target":34963
		},
		{
			"buffer":0,
			"byteLength":8,
			"byteOffset":145172
		},
		{
			"buffer":0,
			"byteLength":24,
			"byteOffset":145180
		},
		{
			"buffer":0,
			"byteLength":32,
			"byteOffset":145204
		},
		{
			"buffer":0,
			"byteLength":24,
			"byteOffset":145236
		},
		{
			"buffer":0,
			"byteLength":24,
			"byteOffset":145260
		},
		{
			"buffer":0,
			"byteLength":72,
			"byteOffset":145284
		},
		{
			"buffer":0,
			"byteLength":288,
			"byteOffset":145356
		},
		{
			"buffer":0,
			"byteLength":8,
			"byteOffset":145644
		},
		{
			"buffer":0,
			"byteLength":24,
			"byteOffset":145652
		},
		{
			"buffer":0,
			"byteLength":32,
			"byteOffset":145676
		},
		{
			"buffer":0,
			"byteLength":24,
			"byteOffset":145708
		},
		{
			"buffer":0,
			"byteLength":24,
			"byteOffset":145732
		},
		{
			"buffer":0,
			"byteLength":32,
			"byteOffset":145756
		},
		{
			"buffer":0,
			"byteLength":24,
			"byteOffset":145788
		},
		{
			"buffer":0,
			"byteLength":32,
			"byteOffset":145812
		},
		{
			"buffer":0,
			"byteLength":24,
			"byteOffset":145844
		},
		{
			"buffer":0,
			"byteLength":216,
			"byteOffset":145868
		},
		{
			"buffer":0,
			"byteLength":32,
			"byteOffset":146084
		},
		{
			"buffer":0,
			"byteLength":24,
			"byteOffset":146116
		},
		{
			"buffer":0,
			"byteLength":32,
			"byteOffset":146140
		},
		{
			"buffer":0,
			"byteLength":24,
			"byteOffset":146172
		},
		{
			"buffer":0,
			"byteLength":24,
			"byteOffset":146196
		},
		{
			"buffer":0,
			"byteLength":32,
			"byteOffset":146220
		},
		{
			"buffer":0,
			"byteLength":8,
			"byteOffset":146252
		},
		{
			"buffer":0,
			"byteLength":24,
			"byteOffset":146260
		},
		{
			"buffer":0,
			"byteLength":32,
			"byteOffset":146284
		},
		{
			"buffer":0,
			"byteLength":24,
			"byteOffset":146316
		},
		{
			"buffer":0,
			"byteLength":24,
			"byteOffset":146340
		},
		{
			"buffer":0,
			"byteLength":64,
			"byteOffset":146364
		},
		{
			"buffer":0,
			"byteLength":256,
			"byteOffset":146428
		},
		{
			"buffer":0,
			"byteLength":64,
			"byteOffset":146684
		},
		{
			"buffer":0,
			"byteLength":64,
			"byteOffset":146748
		},
		{
			"buffer":0,
			"byteLength":64,
			"byteOffset":146812
		},
		{
			"buffer":0,
			"byteLength":64,
			"byteOffset":146876
		},
		{
			"buffer":0,
			"byteLength":64,
			"byteOffset":146940
		}
	],
	"buffers":[
		{
			"byteLength":147004,
			"uri":"data:application/octet-stream;base64,"
		}
	]
}
